<svg width="26" height="27" viewBox="0 0 26 27" fill="none" xmlns="http://www.w3.org/2000/svg">
<path d="M17.2815 13.2857C17.2815 15.6462 15.3563 17.5714 12.9958 17.5714C10.6353 17.5714 8.7101 15.6462 8.7101 13.2857C8.7101 10.9252 10.6353 9 12.9958 9C15.3563 9 17.2815 10.9252 17.2815 13.2857ZM25.853 11.4609C25.853 11.1763 25.6521 10.9085 25.3675 10.8583L22.3039 10.3895C22.1364 9.83705 21.9021 9.2846 21.6175 8.74888C22.1867 7.96205 22.8061 7.22545 23.3753 6.45536C23.459 6.33817 23.5092 6.22098 23.5092 6.07031C23.5092 5.93638 23.4757 5.80245 23.392 5.70201C22.6889 4.71428 21.517 3.67634 20.6297 2.85603C20.5126 2.75558 20.3619 2.68862 20.2112 2.68862C20.0605 2.68862 19.9099 2.73884 19.8094 2.83928L17.4322 4.63058C16.9467 4.37946 16.4445 4.17857 15.9255 4.01116L15.4568 0.930803C15.4233 0.646205 15.1554 0.42857 14.8541 0.42857H11.1376C10.8362 0.42857 10.6018 0.629464 10.5349 0.89732C10.267 1.90178 10.1666 2.98995 10.0494 4.01116C9.53041 4.17857 9.01144 4.3962 8.52595 4.64732L6.21568 2.85603C6.08175 2.75558 5.93108 2.68862 5.78041 2.68862C5.21122 2.68862 2.95117 5.13281 2.54939 5.68527C2.46568 5.80245 2.39872 5.91964 2.39872 6.07031C2.39872 6.22098 2.46568 6.35491 2.56613 6.4721C3.18555 7.22545 3.78823 7.97879 4.35742 8.78237C4.08956 9.2846 3.87193 9.78683 3.70452 10.3225L0.590681 10.7913C0.339565 10.8415 0.138672 11.1429 0.138672 11.394V15.1105C0.138672 15.3951 0.339565 15.6629 0.624163 15.7132L3.68778 16.1652C3.85519 16.7344 4.08956 17.2868 4.37416 17.8225C3.80497 18.6094 3.18555 19.346 2.61635 20.1161C2.53265 20.2333 2.48242 20.3504 2.48242 20.5011C2.48242 20.635 2.5159 20.769 2.59961 20.8862C3.30273 21.8571 4.47461 22.8951 5.36189 23.6987C5.47907 23.8158 5.62974 23.8828 5.78041 23.8828C5.93108 23.8828 6.08175 23.8326 6.19894 23.7321L8.55943 21.9408C9.04492 22.192 9.54715 22.3929 10.0661 22.5603L10.5349 25.6406C10.5684 25.9252 10.8362 26.1429 11.1376 26.1429H14.8541C15.1554 26.1429 15.3898 25.942 15.4568 25.6741C15.7246 24.6696 15.8251 23.5815 15.9422 22.5603C16.4612 22.3929 16.9802 22.1752 17.4657 21.9241L19.776 23.7321C19.9099 23.8158 20.0605 23.8828 20.2112 23.8828C20.7804 23.8828 23.0405 21.4219 23.4422 20.8862C23.5427 20.769 23.5929 20.6518 23.5929 20.5011C23.5929 20.3504 23.526 20.1998 23.4255 20.0826C22.8061 19.3292 22.2034 18.5926 21.6342 17.7723C21.9021 17.2868 22.103 16.7846 22.2871 16.2489L25.3842 15.7801C25.6521 15.7299 25.853 15.4286 25.853 15.1775V11.4609Z" fill="#FFFFFE"/>
</svg>
